%TF.GenerationSoftware,KiCad,Pcbnew,7.0.1-0*%
%TF.CreationDate,2024-08-11T08:47:00+01:00*%
%TF.ProjectId,Zero_1_Control_Panel,5a65726f-5f31-45f4-936f-6e74726f6c5f,rev?*%
%TF.SameCoordinates,Original*%
%TF.FileFunction,Copper,L2,Bot*%
%TF.FilePolarity,Positive*%
%FSLAX46Y46*%
G04 Gerber Fmt 4.6, Leading zero omitted, Abs format (unit mm)*
G04 Created by KiCad (PCBNEW 7.0.1-0) date 2024-08-11 08:47:00*
%MOMM*%
%LPD*%
G01*
G04 APERTURE LIST*
%TA.AperFunction,ComponentPad*%
%ADD10C,2.000000*%
%TD*%
%TA.AperFunction,ComponentPad*%
%ADD11R,1.700000X1.700000*%
%TD*%
%TA.AperFunction,ComponentPad*%
%ADD12O,1.700000X1.700000*%
%TD*%
%TA.AperFunction,ComponentPad*%
%ADD13R,1.800000X1.800000*%
%TD*%
%TA.AperFunction,ComponentPad*%
%ADD14C,1.800000*%
%TD*%
%TA.AperFunction,Conductor*%
%ADD15C,0.250000*%
%TD*%
G04 APERTURE END LIST*
D10*
%TO.P,SW5,1,1*%
%TO.N,Net-(J1-Pin_11)*%
X114500000Y-78040000D03*
%TO.P,SW5,2,2*%
%TO.N,Net-(J1-Pin_14)*%
X121000000Y-78040000D03*
%TD*%
D11*
%TO.P,J2,1,Pin_1*%
%TO.N,Net-(J1-Pin_2)*%
X177800000Y-99060000D03*
D12*
%TO.P,J2,2,Pin_2*%
%TO.N,Net-(J1-Pin_1)*%
X177800000Y-96520000D03*
%TD*%
D11*
%TO.P,J1,1,Pin_1*%
%TO.N,Net-(J1-Pin_1)*%
X57000000Y-54000000D03*
D12*
%TO.P,J1,2,Pin_2*%
%TO.N,Net-(J1-Pin_2)*%
X59540000Y-54000000D03*
%TO.P,J1,3,Pin_3*%
%TO.N,Net-(D1-A)*%
X62080000Y-54000000D03*
%TO.P,J1,4,Pin_4*%
%TO.N,Net-(D1-K)*%
X64620000Y-54000000D03*
%TO.P,J1,5,Pin_5*%
%TO.N,Net-(D2-K)*%
X67160000Y-54000000D03*
%TO.P,J1,6,Pin_6*%
%TO.N,Net-(D3-K)*%
X69700000Y-54000000D03*
%TO.P,J1,7,Pin_7*%
%TO.N,Net-(J1-Pin_7)*%
X72240000Y-54000000D03*
%TO.P,J1,8,Pin_8*%
%TO.N,Net-(J1-Pin_8)*%
X74780000Y-54000000D03*
%TO.P,J1,9,Pin_9*%
%TO.N,Net-(J1-Pin_9)*%
X77320000Y-54000000D03*
%TO.P,J1,10,Pin_10*%
%TO.N,Net-(J1-Pin_10)*%
X79860000Y-54000000D03*
%TO.P,J1,11,Pin_11*%
%TO.N,Net-(J1-Pin_11)*%
X82400000Y-54000000D03*
%TO.P,J1,12,Pin_12*%
%TO.N,Net-(J1-Pin_12)*%
X84940000Y-54000000D03*
%TO.P,J1,13,Pin_13*%
%TO.N,Net-(J1-Pin_13)*%
X87480000Y-54000000D03*
%TO.P,J1,14,Pin_14*%
%TO.N,Net-(J1-Pin_14)*%
X90020000Y-54000000D03*
%TO.P,J1,15,Pin_15*%
%TO.N,Net-(J1-Pin_15)*%
X92560000Y-54000000D03*
%TD*%
D10*
%TO.P,SW3,1,1*%
%TO.N,Net-(J1-Pin_8)*%
X132500000Y-96040000D03*
%TO.P,SW3,2,2*%
%TO.N,Net-(J1-Pin_13)*%
X139000000Y-96040000D03*
%TD*%
%TO.P,SW6,1,1*%
%TO.N,Net-(J1-Pin_12)*%
X132500000Y-78040000D03*
%TO.P,SW6,2,2*%
%TO.N,Net-(J1-Pin_14)*%
X139000000Y-78040000D03*
%TD*%
%TO.P,SW16,1,1*%
%TO.N,Net-(J1-Pin_10)*%
X132500000Y-112540000D03*
%TO.P,SW16,2,2*%
%TO.N,Net-(J1-Pin_12)*%
X139000000Y-112540000D03*
%TD*%
%TO.P,SW11,1,1*%
%TO.N,Net-(J1-Pin_10)*%
X150500000Y-112540000D03*
%TO.P,SW11,2,2*%
%TO.N,Net-(J1-Pin_13)*%
X157000000Y-112540000D03*
%TD*%
%TO.P,SW13,1,1*%
%TO.N,Net-(J1-Pin_12)*%
X150500000Y-60040000D03*
%TO.P,SW13,2,2*%
%TO.N,Net-(J1-Pin_15)*%
X157000000Y-60040000D03*
%TD*%
%TO.P,SW7,1,1*%
%TO.N,Net-(J1-Pin_13)*%
X96500000Y-60040000D03*
%TO.P,SW7,2,2*%
%TO.N,Net-(J1-Pin_14)*%
X103000000Y-60040000D03*
%TD*%
%TO.P,SW12,1,1*%
%TO.N,Net-(J1-Pin_10)*%
X114500000Y-112540000D03*
%TO.P,SW12,2,2*%
%TO.N,Net-(J1-Pin_11)*%
X121000000Y-112540000D03*
%TD*%
%TO.P,SW17,1,1*%
%TO.N,Net-(J1-Pin_7)*%
X56000000Y-112540000D03*
%TO.P,SW17,2,2*%
%TO.N,Net-(J1-Pin_8)*%
X62500000Y-112540000D03*
%TD*%
D13*
%TO.P,D1,1,K*%
%TO.N,Net-(D1-K)*%
X60000000Y-60000000D03*
D14*
%TO.P,D1,2,A*%
%TO.N,Net-(D1-A)*%
X57460000Y-60000000D03*
%TD*%
D10*
%TO.P,SW14,1,1*%
%TO.N,Net-(J1-Pin_13)*%
X150500000Y-96040000D03*
%TO.P,SW14,2,2*%
%TO.N,Net-(J1-Pin_15)*%
X157000000Y-96040000D03*
%TD*%
%TO.P,SW2,1,1*%
%TO.N,Net-(J1-Pin_8)*%
X114500000Y-96040000D03*
%TO.P,SW2,2,2*%
%TO.N,Net-(J1-Pin_12)*%
X121000000Y-96040000D03*
%TD*%
%TO.P,SW15,1,1*%
%TO.N,Net-(J1-Pin_9)*%
X150500000Y-78040000D03*
%TO.P,SW15,2,2*%
%TO.N,Net-(J1-Pin_15)*%
X157000000Y-78040000D03*
%TD*%
%TO.P,SW9,1,1*%
%TO.N,Net-(J1-Pin_15)*%
X132500000Y-60040000D03*
%TO.P,SW9,2,2*%
%TO.N,Net-(J1-Pin_11)*%
X139000000Y-60040000D03*
%TD*%
%TO.P,SW1,1,1*%
%TO.N,Net-(J1-Pin_8)*%
X96500000Y-96040000D03*
%TO.P,SW1,2,2*%
%TO.N,Net-(J1-Pin_11)*%
X103000000Y-96040000D03*
%TD*%
D13*
%TO.P,D2,1,K*%
%TO.N,Net-(D2-K)*%
X60000000Y-78000000D03*
D14*
%TO.P,D2,2,A*%
%TO.N,Net-(D1-A)*%
X57460000Y-78000000D03*
%TD*%
D10*
%TO.P,SW10,1,1*%
%TO.N,Net-(J1-Pin_10)*%
X96500000Y-112540000D03*
%TO.P,SW10,2,2*%
%TO.N,Net-(J1-Pin_9)*%
X103000000Y-112540000D03*
%TD*%
D13*
%TO.P,D3,1,K*%
%TO.N,Net-(D3-K)*%
X60000000Y-96000000D03*
D14*
%TO.P,D3,2,A*%
%TO.N,Net-(D1-A)*%
X57460000Y-96000000D03*
%TD*%
D10*
%TO.P,SW4,1,1*%
%TO.N,Net-(J1-Pin_8)*%
X96500000Y-78040000D03*
%TO.P,SW4,2,2*%
%TO.N,Net-(J1-Pin_9)*%
X103000000Y-78040000D03*
%TD*%
%TO.P,SW8,1,1*%
%TO.N,Net-(J1-Pin_9)*%
X114500000Y-60040000D03*
%TO.P,SW8,2,2*%
%TO.N,Net-(J1-Pin_14)*%
X121000000Y-60040000D03*
%TD*%
D15*
%TO.N,Net-(J1-Pin_15)*%
X157000000Y-60040000D02*
X157000000Y-96040000D01*
%TO.N,Net-(J1-Pin_9)*%
X114500000Y-60040000D02*
X115825000Y-58715000D01*
X123485000Y-58715000D02*
X133350000Y-68580000D01*
X133350000Y-68580000D02*
X141040000Y-68580000D01*
X141040000Y-68580000D02*
X150500000Y-78040000D01*
X115825000Y-58715000D02*
X123485000Y-58715000D01*
%TO.N,Net-(J1-Pin_12)*%
X84940000Y-54000000D02*
X86115000Y-52825000D01*
X86115000Y-52825000D02*
X159505000Y-52825000D01*
X159505000Y-52825000D02*
X167640000Y-60960000D01*
X167640000Y-60960000D02*
X167640000Y-101600000D01*
X167640000Y-101600000D02*
X165100000Y-104140000D01*
X165100000Y-104140000D02*
X147400000Y-104140000D01*
X147400000Y-104140000D02*
X139000000Y-112540000D01*
X139000000Y-112540000D02*
X122500000Y-96040000D01*
X122500000Y-96040000D02*
X121000000Y-96040000D01*
%TO.N,Net-(J1-Pin_11)*%
X103000000Y-96040000D02*
X108000000Y-96040000D01*
X108000000Y-96040000D02*
X121000000Y-109040000D01*
X121000000Y-109040000D02*
X121000000Y-112540000D01*
%TO.N,Net-(J1-Pin_12)*%
X121000000Y-96040000D02*
X124500000Y-92540000D01*
X124500000Y-92540000D02*
X124500000Y-81100000D01*
X124500000Y-81100000D02*
X127560000Y-78040000D01*
X127560000Y-78040000D02*
X132500000Y-78040000D01*
%TO.N,Net-(J1-Pin_8)*%
X74780000Y-95100000D02*
X75720000Y-96040000D01*
X75720000Y-96040000D02*
X96500000Y-96040000D01*
X74780000Y-54000000D02*
X74780000Y-95100000D01*
%TO.N,Net-(J1-Pin_9)*%
X83820000Y-73660000D02*
X98620000Y-73660000D01*
X77320000Y-54000000D02*
X77320000Y-67160000D01*
X101675000Y-111215000D02*
X103000000Y-112540000D01*
X101675000Y-79365000D02*
X101675000Y-111215000D01*
X77320000Y-67160000D02*
X83820000Y-73660000D01*
X103000000Y-78040000D02*
X101675000Y-79365000D01*
X114500000Y-66540000D02*
X114500000Y-60040000D01*
X103000000Y-78040000D02*
X114500000Y-66540000D01*
X98620000Y-73660000D02*
X103000000Y-78040000D01*
%TO.N,Net-(J1-Pin_11)*%
X114500000Y-78040000D02*
X114500000Y-84540000D01*
X114500000Y-84540000D02*
X103000000Y-96040000D01*
%TO.N,Net-(J1-Pin_14)*%
X121000000Y-60040000D02*
X121000000Y-78040000D01*
%TO.N,Net-(J1-Pin_15)*%
X150960000Y-54000000D02*
X157000000Y-60040000D01*
X129540000Y-54610000D02*
X129540000Y-57080000D01*
X129540000Y-57080000D02*
X132500000Y-60040000D01*
X128930000Y-54000000D02*
X129540000Y-54610000D01*
X128930000Y-54000000D02*
X150960000Y-54000000D01*
X92560000Y-54000000D02*
X128930000Y-54000000D01*
%TD*%
M02*
