M48
; DRILL file {KiCad 7.0.1-0} date 2024 August 11, Sunday 08:49:19
; FORMAT={-:-/ absolute / inch / decimal}
; #@! TF.CreationDate,2024-08-11T08:49:19+01:00
; #@! TF.GenerationSoftware,Kicad,Pcbnew,7.0.1-0
; #@! TF.FileFunction,Plated,1,2,PTH
FMAT,2
INCH
; #@! TA.AperFunction,Plated,PTH,ComponentDrill
T1C0.0354
; #@! TA.AperFunction,Plated,PTH,ComponentDrill
T2C0.0394
; #@! TA.AperFunction,Plated,PTH,ComponentDrill
T3C0.0433
%
G90
G05
T1
X2.2622Y-2.3622
X2.2622Y-3.0709
X2.2622Y-3.7795
X2.3622Y-2.3622
X2.3622Y-3.0709
X2.3622Y-3.7795
T2
X2.2441Y-2.126
X2.3441Y-2.126
X2.4441Y-2.126
X2.5441Y-2.126
X2.6441Y-2.126
X2.7441Y-2.126
X2.8441Y-2.126
X2.9441Y-2.126
X3.0441Y-2.126
X3.1441Y-2.126
X3.2441Y-2.126
X3.3441Y-2.126
X3.4441Y-2.126
X3.5441Y-2.126
X3.6441Y-2.126
X7.0Y-3.8
X7.0Y-3.9
T3
X2.2047Y-4.4307
X2.4606Y-4.4307
X3.7992Y-2.3638
X3.7992Y-3.0724
X3.7992Y-3.7811
X3.7992Y-4.4307
X4.0551Y-2.3638
X4.0551Y-3.0724
X4.0551Y-3.7811
X4.0551Y-4.4307
X4.5079Y-2.3638
X4.5079Y-3.0724
X4.5079Y-3.7811
X4.5079Y-4.4307
X4.7638Y-2.3638
X4.7638Y-3.0724
X4.7638Y-3.7811
X4.7638Y-4.4307
X5.2165Y-2.3638
X5.2165Y-3.0724
X5.2165Y-3.7811
X5.2165Y-4.4307
X5.4724Y-2.3638
X5.4724Y-3.0724
X5.4724Y-3.7811
X5.4724Y-4.4307
X5.9252Y-2.3638
X5.9252Y-3.0724
X5.9252Y-3.7811
X5.9252Y-4.4307
X6.1811Y-2.3638
X6.1811Y-3.0724
X6.1811Y-3.7811
X6.1811Y-4.4307
T0
M30
