%TF.GenerationSoftware,KiCad,Pcbnew,7.0.1-0*%
%TF.CreationDate,2024-08-11T08:47:00+01:00*%
%TF.ProjectId,Zero_1_Control_Panel,5a65726f-5f31-45f4-936f-6e74726f6c5f,rev?*%
%TF.SameCoordinates,Original*%
%TF.FileFunction,Copper,L1,Top*%
%TF.FilePolarity,Positive*%
%FSLAX46Y46*%
G04 Gerber Fmt 4.6, Leading zero omitted, Abs format (unit mm)*
G04 Created by KiCad (PCBNEW 7.0.1-0) date 2024-08-11 08:47:00*
%MOMM*%
%LPD*%
G01*
G04 APERTURE LIST*
%TA.AperFunction,ComponentPad*%
%ADD10C,2.000000*%
%TD*%
%TA.AperFunction,ComponentPad*%
%ADD11R,1.700000X1.700000*%
%TD*%
%TA.AperFunction,ComponentPad*%
%ADD12O,1.700000X1.700000*%
%TD*%
%TA.AperFunction,ComponentPad*%
%ADD13R,1.800000X1.800000*%
%TD*%
%TA.AperFunction,ComponentPad*%
%ADD14C,1.800000*%
%TD*%
%TA.AperFunction,Conductor*%
%ADD15C,0.250000*%
%TD*%
G04 APERTURE END LIST*
D10*
%TO.P,SW5,1,1*%
%TO.N,Net-(J1-Pin_11)*%
X114500000Y-78040000D03*
%TO.P,SW5,2,2*%
%TO.N,Net-(J1-Pin_14)*%
X121000000Y-78040000D03*
%TD*%
D11*
%TO.P,J2,1,Pin_1*%
%TO.N,Net-(J1-Pin_2)*%
X177800000Y-99060000D03*
D12*
%TO.P,J2,2,Pin_2*%
%TO.N,Net-(J1-Pin_1)*%
X177800000Y-96520000D03*
%TD*%
D11*
%TO.P,J1,1,Pin_1*%
%TO.N,Net-(J1-Pin_1)*%
X57000000Y-54000000D03*
D12*
%TO.P,J1,2,Pin_2*%
%TO.N,Net-(J1-Pin_2)*%
X59540000Y-54000000D03*
%TO.P,J1,3,Pin_3*%
%TO.N,Net-(D1-A)*%
X62080000Y-54000000D03*
%TO.P,J1,4,Pin_4*%
%TO.N,Net-(D1-K)*%
X64620000Y-54000000D03*
%TO.P,J1,5,Pin_5*%
%TO.N,Net-(D2-K)*%
X67160000Y-54000000D03*
%TO.P,J1,6,Pin_6*%
%TO.N,Net-(D3-K)*%
X69700000Y-54000000D03*
%TO.P,J1,7,Pin_7*%
%TO.N,Net-(J1-Pin_7)*%
X72240000Y-54000000D03*
%TO.P,J1,8,Pin_8*%
%TO.N,Net-(J1-Pin_8)*%
X74780000Y-54000000D03*
%TO.P,J1,9,Pin_9*%
%TO.N,Net-(J1-Pin_9)*%
X77320000Y-54000000D03*
%TO.P,J1,10,Pin_10*%
%TO.N,Net-(J1-Pin_10)*%
X79860000Y-54000000D03*
%TO.P,J1,11,Pin_11*%
%TO.N,Net-(J1-Pin_11)*%
X82400000Y-54000000D03*
%TO.P,J1,12,Pin_12*%
%TO.N,Net-(J1-Pin_12)*%
X84940000Y-54000000D03*
%TO.P,J1,13,Pin_13*%
%TO.N,Net-(J1-Pin_13)*%
X87480000Y-54000000D03*
%TO.P,J1,14,Pin_14*%
%TO.N,Net-(J1-Pin_14)*%
X90020000Y-54000000D03*
%TO.P,J1,15,Pin_15*%
%TO.N,Net-(J1-Pin_15)*%
X92560000Y-54000000D03*
%TD*%
D10*
%TO.P,SW3,1,1*%
%TO.N,Net-(J1-Pin_8)*%
X132500000Y-96040000D03*
%TO.P,SW3,2,2*%
%TO.N,Net-(J1-Pin_13)*%
X139000000Y-96040000D03*
%TD*%
%TO.P,SW6,1,1*%
%TO.N,Net-(J1-Pin_12)*%
X132500000Y-78040000D03*
%TO.P,SW6,2,2*%
%TO.N,Net-(J1-Pin_14)*%
X139000000Y-78040000D03*
%TD*%
%TO.P,SW16,1,1*%
%TO.N,Net-(J1-Pin_10)*%
X132500000Y-112540000D03*
%TO.P,SW16,2,2*%
%TO.N,Net-(J1-Pin_12)*%
X139000000Y-112540000D03*
%TD*%
%TO.P,SW11,1,1*%
%TO.N,Net-(J1-Pin_10)*%
X150500000Y-112540000D03*
%TO.P,SW11,2,2*%
%TO.N,Net-(J1-Pin_13)*%
X157000000Y-112540000D03*
%TD*%
%TO.P,SW13,1,1*%
%TO.N,Net-(J1-Pin_12)*%
X150500000Y-60040000D03*
%TO.P,SW13,2,2*%
%TO.N,Net-(J1-Pin_15)*%
X157000000Y-60040000D03*
%TD*%
%TO.P,SW7,1,1*%
%TO.N,Net-(J1-Pin_13)*%
X96500000Y-60040000D03*
%TO.P,SW7,2,2*%
%TO.N,Net-(J1-Pin_14)*%
X103000000Y-60040000D03*
%TD*%
%TO.P,SW12,1,1*%
%TO.N,Net-(J1-Pin_10)*%
X114500000Y-112540000D03*
%TO.P,SW12,2,2*%
%TO.N,Net-(J1-Pin_11)*%
X121000000Y-112540000D03*
%TD*%
%TO.P,SW17,1,1*%
%TO.N,Net-(J1-Pin_7)*%
X56000000Y-112540000D03*
%TO.P,SW17,2,2*%
%TO.N,Net-(J1-Pin_8)*%
X62500000Y-112540000D03*
%TD*%
D13*
%TO.P,D1,1,K*%
%TO.N,Net-(D1-K)*%
X60000000Y-60000000D03*
D14*
%TO.P,D1,2,A*%
%TO.N,Net-(D1-A)*%
X57460000Y-60000000D03*
%TD*%
D10*
%TO.P,SW14,1,1*%
%TO.N,Net-(J1-Pin_13)*%
X150500000Y-96040000D03*
%TO.P,SW14,2,2*%
%TO.N,Net-(J1-Pin_15)*%
X157000000Y-96040000D03*
%TD*%
%TO.P,SW2,1,1*%
%TO.N,Net-(J1-Pin_8)*%
X114500000Y-96040000D03*
%TO.P,SW2,2,2*%
%TO.N,Net-(J1-Pin_12)*%
X121000000Y-96040000D03*
%TD*%
%TO.P,SW15,1,1*%
%TO.N,Net-(J1-Pin_9)*%
X150500000Y-78040000D03*
%TO.P,SW15,2,2*%
%TO.N,Net-(J1-Pin_15)*%
X157000000Y-78040000D03*
%TD*%
%TO.P,SW9,1,1*%
%TO.N,Net-(J1-Pin_15)*%
X132500000Y-60040000D03*
%TO.P,SW9,2,2*%
%TO.N,Net-(J1-Pin_11)*%
X139000000Y-60040000D03*
%TD*%
%TO.P,SW1,1,1*%
%TO.N,Net-(J1-Pin_8)*%
X96500000Y-96040000D03*
%TO.P,SW1,2,2*%
%TO.N,Net-(J1-Pin_11)*%
X103000000Y-96040000D03*
%TD*%
D13*
%TO.P,D2,1,K*%
%TO.N,Net-(D2-K)*%
X60000000Y-78000000D03*
D14*
%TO.P,D2,2,A*%
%TO.N,Net-(D1-A)*%
X57460000Y-78000000D03*
%TD*%
D10*
%TO.P,SW10,1,1*%
%TO.N,Net-(J1-Pin_10)*%
X96500000Y-112540000D03*
%TO.P,SW10,2,2*%
%TO.N,Net-(J1-Pin_9)*%
X103000000Y-112540000D03*
%TD*%
D13*
%TO.P,D3,1,K*%
%TO.N,Net-(D3-K)*%
X60000000Y-96000000D03*
D14*
%TO.P,D3,2,A*%
%TO.N,Net-(D1-A)*%
X57460000Y-96000000D03*
%TD*%
D10*
%TO.P,SW4,1,1*%
%TO.N,Net-(J1-Pin_8)*%
X96500000Y-78040000D03*
%TO.P,SW4,2,2*%
%TO.N,Net-(J1-Pin_9)*%
X103000000Y-78040000D03*
%TD*%
%TO.P,SW8,1,1*%
%TO.N,Net-(J1-Pin_9)*%
X114500000Y-60040000D03*
%TO.P,SW8,2,2*%
%TO.N,Net-(J1-Pin_14)*%
X121000000Y-60040000D03*
%TD*%
D15*
%TO.N,Net-(J1-Pin_11)*%
X82400000Y-54000000D02*
X82400000Y-67160000D01*
X82400000Y-67160000D02*
X83820000Y-68580000D01*
X83820000Y-68580000D02*
X105040000Y-68580000D01*
X105040000Y-68580000D02*
X114500000Y-78040000D01*
%TO.N,Net-(J1-Pin_14)*%
X103000000Y-60040000D02*
X105890000Y-57150000D01*
X118110000Y-57150000D02*
X121000000Y-60040000D01*
X105890000Y-57150000D02*
X118110000Y-57150000D01*
%TO.N,Net-(J1-Pin_12)*%
X150500000Y-60040000D02*
X138150000Y-72390000D01*
X83000000Y-70300000D02*
X81225000Y-68525000D01*
X138150000Y-72390000D02*
X123190000Y-72390000D01*
X123190000Y-72390000D02*
X114300000Y-81280000D01*
X114300000Y-81280000D02*
X103320000Y-70300000D01*
X103320000Y-70300000D02*
X83000000Y-70300000D01*
X81225000Y-68525000D02*
X81225000Y-53513299D01*
X81225000Y-53513299D02*
X81913299Y-52825000D01*
X81913299Y-52825000D02*
X83765000Y-52825000D01*
X83765000Y-52825000D02*
X84940000Y-54000000D01*
%TO.N,Net-(J1-Pin_13)*%
X154000000Y-94540000D02*
X154000000Y-100660000D01*
X154000000Y-100660000D02*
X157000000Y-103660000D01*
X157000000Y-103660000D02*
X157000000Y-112540000D01*
%TO.N,Net-(J1-Pin_10)*%
X132500000Y-112540000D02*
X136000000Y-112540000D01*
X147180000Y-109220000D02*
X150500000Y-112540000D01*
X136000000Y-112540000D02*
X139320000Y-109220000D01*
X139320000Y-109220000D02*
X147180000Y-109220000D01*
X114500000Y-112540000D02*
X118000000Y-112540000D01*
X118000000Y-112540000D02*
X121320000Y-109220000D01*
X121320000Y-109220000D02*
X129180000Y-109220000D01*
X129180000Y-109220000D02*
X132500000Y-112540000D01*
X96500000Y-112540000D02*
X97825000Y-111215000D01*
X97825000Y-111215000D02*
X98335000Y-111215000D01*
X98335000Y-111215000D02*
X100330000Y-109220000D01*
X100330000Y-109220000D02*
X111180000Y-109220000D01*
X111180000Y-109220000D02*
X114500000Y-112540000D01*
%TO.N,Net-(D1-K)*%
X64620000Y-55380000D02*
X60000000Y-60000000D01*
X64620000Y-54000000D02*
X64620000Y-55380000D01*
%TO.N,Net-(D1-A)*%
X57460000Y-96000000D02*
X57460000Y-78000000D01*
X57460000Y-58620000D02*
X57460000Y-60000000D01*
X57460000Y-73970000D02*
X54610000Y-71120000D01*
X62080000Y-54000000D02*
X57460000Y-58620000D01*
X57460000Y-78000000D02*
X57460000Y-73970000D01*
X54610000Y-62850000D02*
X57460000Y-60000000D01*
X54610000Y-71120000D02*
X54610000Y-62850000D01*
%TO.N,Net-(D2-K)*%
X67160000Y-54000000D02*
X67160000Y-70840000D01*
X67160000Y-70840000D02*
X60000000Y-78000000D01*
%TO.N,Net-(D3-K)*%
X69700000Y-54000000D02*
X69700000Y-86300000D01*
X69700000Y-86300000D02*
X60000000Y-96000000D01*
%TO.N,Net-(J1-Pin_1)*%
X53340000Y-57660000D02*
X53340000Y-115570000D01*
X54610000Y-116840000D02*
X171450000Y-116840000D01*
X53340000Y-115570000D02*
X54610000Y-116840000D01*
X171450000Y-116840000D02*
X172720000Y-115570000D01*
X172720000Y-115570000D02*
X172720000Y-101600000D01*
X57000000Y-54000000D02*
X53340000Y-57660000D01*
X172720000Y-101600000D02*
X177800000Y-96520000D01*
%TO.N,Net-(J1-Pin_2)*%
X177800000Y-99060000D02*
X175260000Y-101600000D01*
X52070000Y-52070000D02*
X57610000Y-52070000D01*
X54610000Y-118110000D02*
X52070000Y-115570000D01*
X172720000Y-118110000D02*
X54610000Y-118110000D01*
X175260000Y-101600000D02*
X175260000Y-115570000D01*
X52070000Y-115570000D02*
X52070000Y-52070000D01*
X57610000Y-52070000D02*
X59540000Y-54000000D01*
X175260000Y-115570000D02*
X172720000Y-118110000D01*
%TO.N,Net-(J1-Pin_7)*%
X72240000Y-54000000D02*
X72240000Y-96300000D01*
X72240000Y-96300000D02*
X56000000Y-112540000D01*
%TO.N,Net-(J1-Pin_8)*%
X132500000Y-96040000D02*
X127900000Y-91440000D01*
X121100000Y-91440000D02*
X116500000Y-96040000D01*
X74780000Y-54000000D02*
X74780000Y-93980000D01*
X74780000Y-54000000D02*
X74780000Y-93830000D01*
X74780000Y-100260000D02*
X62500000Y-112540000D01*
X74780000Y-93980000D02*
X74780000Y-100260000D01*
X114500000Y-96040000D02*
X109900000Y-91440000D01*
X109900000Y-91440000D02*
X101100000Y-91440000D01*
X101100000Y-91440000D02*
X96500000Y-96040000D01*
X116500000Y-96040000D02*
X114500000Y-96040000D01*
X127900000Y-91440000D02*
X121100000Y-91440000D01*
X96500000Y-78040000D02*
X96500000Y-96040000D01*
%TO.N,Net-(J1-Pin_10)*%
X79860000Y-81273833D02*
X80010000Y-81423833D01*
X79860000Y-54000000D02*
X79860000Y-81273833D01*
X84600000Y-112540000D02*
X96500000Y-112540000D01*
X80010000Y-81423833D02*
X80010000Y-107950000D01*
X80010000Y-107950000D02*
X84600000Y-112540000D01*
%TO.N,Net-(J1-Pin_11)*%
X114500000Y-78040000D02*
X118060000Y-74480000D01*
X127920000Y-71120000D02*
X139000000Y-60040000D01*
X121920000Y-71120000D02*
X127920000Y-71120000D01*
X118560000Y-74480000D02*
X121920000Y-71120000D01*
X118060000Y-74480000D02*
X118560000Y-74480000D01*
X114500000Y-78040000D02*
X114500000Y-77670000D01*
%TO.N,Net-(J1-Pin_13)*%
X165100000Y-83440000D02*
X154000000Y-94540000D01*
X139000000Y-96040000D02*
X152500000Y-96040000D01*
X152500000Y-96040000D02*
X154000000Y-94540000D01*
X165100000Y-53340000D02*
X165100000Y-83440000D01*
X87480000Y-54000000D02*
X89105000Y-52375000D01*
X91790000Y-60040000D02*
X96500000Y-60040000D01*
X87966701Y-54486701D02*
X87966701Y-56216701D01*
X90680000Y-50800000D02*
X162560000Y-50800000D01*
X89105000Y-52375000D02*
X90680000Y-50800000D01*
X87480000Y-54000000D02*
X87966701Y-54486701D01*
X162560000Y-50800000D02*
X165100000Y-53340000D01*
X87966701Y-56216701D02*
X91790000Y-60040000D01*
%TO.N,Net-(J1-Pin_14)*%
X121000000Y-78040000D02*
X124110000Y-74930000D01*
X135890000Y-74930000D02*
X139000000Y-78040000D01*
X124110000Y-74930000D02*
X135890000Y-74930000D01*
X91195000Y-52825000D02*
X95785000Y-52825000D01*
X95785000Y-52825000D02*
X103000000Y-60040000D01*
X90020000Y-54000000D02*
X91195000Y-52825000D01*
%TD*%
M02*
